<svg width="100" height="100" viewBox="0 0 100 100" fill="none" xmlns="http://www.w3.org/2000/svg">
  <g stroke="#000000" stroke-width="4" stroke-linejoin="round" stroke-linecap="round">
    <!-- Cake Base (Side) -->
    <path d="M20 50 L20 80 L80 70 L80 40 L20 50 Z" fill="#F4C490" />
    
    <!-- Top Surface (Chocolate) -->
    <path d="M20 50 L50 20 L80 40 L20 50 Z" fill="#8B4513" />
    
    <!-- Frosting Drip -->
    <path d="M20 50 L20 62 C30 75 40 60 50 65 C60 70 70 60 80 52 L80 40 L20 50 Z" fill="#8B4513" />
    
    <!-- Sprinkles -->
    <line x1="35" y1="40" x2="38" y2="43" stroke="white" stroke-width="3" />
    <line x1="45" y1="30" x2="48" y2="33" stroke="white" stroke-width="3" />
    <line x1="60" y1="35" x2="63" y2="38" stroke="white" stroke-width="3" />
    <line x1="30" y1="48" x2="33" y2="46" stroke="white" stroke-width="3" />
    <line x1="55" y1="45" x2="58" y2="42" stroke="white" stroke-width="3" />

    <!-- Cherry Stem -->
    <path d="M50 20 Q 55 10 60 12" fill="none" stroke-width="3"/>
    
    <!-- Cherry -->
    <circle cx="50" cy="20" r="8" fill="#FF0000" />
    
    <!-- Cherry Shine -->
    <path d="M47 18 Q 46 16 48 15" stroke="white" stroke-width="2" fill="none" />
  </g>
</svg>